#!OML:ASF H:\BabyWalks\Project 1\Capture day 1\Session 1\baby.ASF
:FULLY-SPECIFIED
:DEGREES
819
root 37.884 17.435 -10.2751 527.167 83.5181 526.382
lowerback 17.4753 -1.22143 -0.301841
upperback 5.53834 -1.24106 1.29876
thorax -3.82445 -0.472838 1.7857
lowerneck -0.613947 -2.24126 3.62043
upperneck -9.78443 -3.12793 -4.18642
head -3.18779 -1.48249 -1.92518
rclavicle -1.33186e-014 -1.39149e-014
rhumerus -43.1419 5.295 -78.7727
rradius 54.384
rwrist -2.28972
rhand -13.8409 -18.5837
rfingers 7.12502
rthumb 12.2825 -48.203
lclavicle -1.33186e-014 -1.39149e-014
lhumerus -42.65 -7.89087 81.9957
lradius 46.0692
lwrist -4.29183
lhand 4.66542 6.41145
lfingers 7.12502
lthumb 30.0508 33.9895
rfemur -22.4824 8.29606 15.9733
rtibia 35.2378
rfoot -12.1557 -2.41321
rtoes -0.99406
lfemur 7.72231 -8.91662 -18.4079
ltibia 16.4044
lfoot -26.0183 -6.80451
ltoes -2.41639
820
root 37.9167 17.4338 -10.263 528.236 83.475 527.387
lowerback 17.4712 -1.21368 -0.231949
upperback 5.54618 -1.21497 1.35245
thorax -3.81523 -0.459658 1.79736
lowerneck -0.58088 -2.25588 3.64502
upperneck -9.81236 -3.14495 -4.16279
head -3.20439 -1.49219 -1.9212
rclavicle 1.51076e-014 -1.27222e-014
rhumerus -43.1959 5.72809 -78.976
rradius 54.7434
rwrist -2.32852
rhand -13.5775 -18.361
rfingers 7.12502
rthumb 12.5365 -47.9649
lclavicle 1.51076e-014 -1.27222e-014
lhumerus -42.5809 -7.95537 81.9246
lradius 46.2469
lwrist -4.11461
lhand 4.53344 6.4458
lfingers 7.12502
lthumb 29.9249 34.0466
rfemur -22.4797 8.27137 16.1566
rtibia 35.3372
rfoot -12.2941 -2.49402
rtoes -0.961534
lfemur 7.88037 -8.95278 -18.2503
ltibia 16.1596
lfoot -26.0247 -6.74487
ltoes -2.5466
821
root 37.949 17.4322 -10.251 529.35 83.4342 528.443
lowerback 17.4643 -1.20244 -0.161859
upperback 5.5596 -1.18388 1.4085
thorax -3.7987 -0.443928 1.81025
lowerneck -0.569669 -2.26961 3.68081
upperneck -9.82443 -3.16241 -4.16039
head -3.21234 -1.50209 -1.92638
rclavicle -2.76311e-014 1.55052e-014
rhumerus -43.2407 6.15315 -79.1726
rradius 55.0929
rwrist -2.32804
rhand -13.2737 -18.1182
rfingers 7.12502
rthumb 12.8294 -47.704
lclavicle -2.76311e-014 1.55052e-014
lhumerus -42.4713 -7.9283 81.8111
lradius 46.4437
lwrist -3.93306
lhand 4.3515 6.48405
lfingers 7.12502
lthumb 29.7512 34.1161
rfemur -22.4675 8.24564 16.349
rtibia 35.425
rfoot -12.4293 -2.5672
rtoes -0.919681
lfemur 8.02288 -8.98644 -18.0829
ltibia 15.9542
lfoot -26.0441 -6.69323
ltoes -2.67035
822
root 37.9805 17.4305 -10.2391 530.5 83.3961 529.537
lowerback 17.4569 -1.1886 -0.0885562
upperback 5.57061 -1.14905 1.46375
thorax -3.78465 -0.426377 1.81976
lowerneck -0.574111 -2.28377 3.72512
upperneck -9.81282 -3.18168 -4.17407
head -3.20995 -1.51305 -1.93838
rclavicle 2.24627e-014 9.14409e-015
rhumerus -43.2844 6.56348 -79.3661
rradius 55.4231
rwrist -2.2975
rhand -12.9409 -17.859
rfingers 7.12502
rthumb 13.1502 -47.4244
lclavicle 2.24627e-014 9.14409e-015
lhumerus -42.339 -7.82047 81.659
lradius 46.6611
lwrist -3.74942
lhand 4.11932 6.53146
lfingers 7.12502
lthumb 29.5296 34.2029
rfemur -22.4506 8.2214 16.5483
rtibia 35.5034
rfoot -12.5627 -2.63438
rtoes -0.874726
lfemur 8.14608 -9.01942 -17.9069
ltibia 15.7879
lfoot -26.0702 -6.64914
ltoes -2.7827
823
root 38.0114 17.4285 -10.2272 531.638 83.3565 530.622
lowerback 17.4492 -1.17409 -0.0157019
upperback 5.57905 -1.11381 1.51577
thorax -3.77319 -0.408646 1.82605
lowerneck -0.576132 -2.29657 3.77079
upperneck -9.79307 -3.1996 -4.1945
head -3.20539 -1.52325 -1.95287
rclavicle 5.96354e-016 -2.38542e-015
rhumerus -43.3274 6.945 -79.5542
rradius 55.7372
rwrist -2.23394
rhand -12.5727 -17.6068
rfingers 7.12502
rthumb 13.5051 -47.1489
lclavicle 5.96354e-016 -2.38542e-015
lhumerus -42.1897 -7.63418 81.4713
lradius 46.9027
lwrist -3.56383
lhand 3.84822 6.5945
lfingers 7.12502
lthumb 29.2708 34.3114
rfemur -22.4297 8.19336 16.7476
rtibia 35.5762
rfoot -12.696 -2.69202
rtoes -0.824612
lfemur 8.24966 -9.05334 -17.7284
ltibia 15.6609
lfoot -26.1012 -6.61819
ltoes -2.87716
824
root 38.0415 17.4263 -10.2156 532.704 83.3137 531.637
lowerback 17.4391 -1.1584 0.0559061
upperback 5.58636 -1.07788 1.5596
thorax -3.76186 -0.390598 1.82422
lowerneck -0.572982 -2.31036 3.81445
upperneck -9.7716 -3.21845 -4.21047
head -3.20109 -1.534 -1.96544
rclavicle 1.78906e-015 -1.82882e-014
rhumerus -43.3667 7.28593 -79.7372
rradius 56.0157
rwrist -2.12955
rhand -12.2024 -17.3277
rfingers 7.12502
rthumb 13.8619 -46.8457
lclavicle 1.78906e-015 -1.82882e-014
lhumerus -42.0232 -7.38665 81.2521
lradius 47.1642
lwrist -3.36874
lhand 3.53639 6.6565
lfingers 7.12502
lthumb 28.973 34.4249
rfemur -22.4064 8.15911 16.9377
rtibia 35.6466
rfoot -12.8321 -2.73889
rtoes -0.76935
lfemur 8.33393 -9.09285 -17.5582
ltibia 15.5727
lfoot -26.1348 -6.59503
ltoes -2.95308
825
root 38.0707 17.4239 -10.2041 533.685 83.2676 532.57
lowerback 17.4328 -1.14395 0.122315
upperback 5.58803 -1.04514 1.59625
thorax -3.75843 -0.374196 1.81856
lowerneck -0.55664 -2.3226 3.84636
upperneck -9.75146 -3.23438 -4.21509
head -3.19895 -1.54317 -1.97207
rclavicle 1.78906e-015 2.38542e-014
rhumerus -43.4024 7.59098 -79.9168
rradius 56.264
rwrist -2.00925
rhand -11.828 -17.0657
rfingers 7.12502
rthumb 14.2228 -46.5587
lclavicle 1.78906e-015 2.38542e-014
lhumerus -41.8517 -7.07843 81.0065
lradius 47.4443
lwrist -3.1666
lhand 3.18611 6.71063
lfingers 7.12502
lthumb 28.6384 34.536
rfemur -22.3845 8.12012 17.1176
rtibia 35.7204
rfoot -12.9709 -2.77821
rtoes -0.718662
lfemur 8.39971 -9.1354 -17.3966
ltibia 15.5183
lfoot -26.1669 -6.58136
ltoes -3.01469
826
root 38.099 17.4215 -10.1928 534.577 83.2194 533.415
lowerback 17.4266 -1.12895 0.187397
upperback 5.58863 -1.01263 1.62255
thorax -3.75627 -0.357915 1.80277
lowerneck -0.54208 -2.33688 3.87519
upperneck -9.7302 -3.25244 -4.21086
head -3.19587 -1.55361 -1.97511
rclavicle 3.97569e-016 -1.31198e-014
rhumerus -43.4295 7.84384 -80.0927
rradius 56.4797
rwrist -1.87817
rhand -11.4669 -16.8222
rfingers 7.12502
rthumb 14.5707 -46.2904
lclavicle 3.97569e-016 -1.31198e-014
lhumerus -41.6662 -6.73139 80.7395
lradius 47.7428
lwrist -2.94947
lhand 2.79817 6.75638
lfingers 7.12502
lthumb 28.2677 34.6437
rfemur -22.3682 8.0792 17.2858
rtibia 35.8014
rfoot -13.1116 -2.81222
rtoes -0.663186
lfemur 8.44989 -9.17973 -17.2447
ltibia 15.4885
lfoot -26.1925 -6.57508
ltoes -3.06578
827
root 38.1263 17.419 -10.1815 535.295 83.1674 534.084
lowerback 17.4265 -1.11469 0.237976
upperback 5.58344 -0.984467 1.63707
thorax -3.76334 -0.343883 1.78381
lowerneck -0.520609 -2.34991 3.89872
upperneck -9.71079 -3.26798 -4.1962
head -3.19417 -1.5629 -1.97372
rclavicle 9.74045e-015 -1.66979e-014
rhumerus -43.4525 8.0523 -80.267
rradius 56.6625
rwrist -1.75215
rhand -11.1412 -16.5944
rfingers 7.12502
rthumb 14.8845 -46.0397
lclavicle 9.74045e-015 -1.66979e-014
lhumerus -41.478 -6.35126 80.4571
lradius 48.0592
lwrist -2.70835
lhand 2.38785 6.79972
lfingers 7.12502
lthumb 27.8755 34.7513
rfemur -22.361 8.03434 17.4312
rtibia 35.8935
rfoot -13.2536 -2.84213
rtoes -0.617601
lfemur 8.48648 -9.22611 -17.1144
ltibia 15.4764
lfoot -26.2103 -6.57607
ltoes -3.11116
